<svg width="66" height="14" viewBox="0 0 66 14" fill="none" xmlns="http://www.w3.org/2000/svg">
<path d="M0.602 5.114C0.602 4.162 0.816667 3.308 1.246 2.552C1.67533 1.78667 2.25867 1.18933 2.996 0.76C3.74267 0.330666 4.56867 0.116 5.474 0.116C6.538 0.116 7.46667 0.372666 8.26 0.886C9.05333 1.39933 9.632 2.12733 9.996 3.07H8.47C8.19933 2.482 7.80733 2.02933 7.294 1.712C6.79 1.39467 6.18333 1.236 5.474 1.236C4.79267 1.236 4.18133 1.39467 3.64 1.712C3.09867 2.02933 2.674 2.482 2.366 3.07C2.058 3.64867 1.904 4.33 1.904 5.114C1.904 5.88867 2.058 6.57 2.366 7.158C2.674 7.73667 3.09867 8.18467 3.64 8.502C4.18133 8.81933 4.79267 8.978 5.474 8.978C6.18333 8.978 6.79 8.824 7.294 8.516C7.80733 8.19867 8.19933 7.746 8.47 7.158H9.996C9.632 8.09133 9.05333 8.81467 8.26 9.328C7.46667 9.832 6.538 10.084 5.474 10.084C4.56867 10.084 3.74267 9.874 2.996 9.454C2.25867 9.02467 1.67533 8.432 1.246 7.676C0.816667 6.92 0.602 6.066 0.602 5.114ZM11.4165 6.136C11.4165 5.352 11.5751 4.666 11.8925 4.078C12.2098 3.48067 12.6438 3.01867 13.1945 2.692C13.7545 2.36533 14.3751 2.202 15.0565 2.202C15.7285 2.202 16.3118 2.34667 16.8065 2.636C17.3011 2.92533 17.6698 3.28933 17.9125 3.728V2.328H19.2005V10H17.9125V8.572C17.6605 9.02 17.2825 9.39333 16.7785 9.692C16.2838 9.98133 15.7051 10.126 15.0425 10.126C14.3611 10.126 13.7451 9.958 13.1945 9.622C12.6438 9.286 12.2098 8.81467 11.8925 8.208C11.5751 7.60133 11.4165 6.91067 11.4165 6.136ZM17.9125 6.15C17.9125 5.57133 17.7958 5.06733 17.5625 4.638C17.3291 4.20867 17.0118 3.882 16.6105 3.658C16.2185 3.42467 15.7845 3.308 15.3085 3.308C14.8325 3.308 14.3985 3.42 14.0065 3.644C13.6145 3.868 13.3018 4.19467 13.0685 4.624C12.8351 5.05333 12.7185 5.55733 12.7185 6.136C12.7185 6.724 12.8351 7.23733 13.0685 7.676C13.3018 8.10533 13.6145 8.43667 14.0065 8.67C14.3985 8.894 14.8325 9.006 15.3085 9.006C15.7845 9.006 16.2185 8.894 16.6105 8.67C17.0118 8.43667 17.3291 8.10533 17.5625 7.676C17.7958 7.23733 17.9125 6.72867 17.9125 6.15ZM22.9074 3.378V7.9C22.9074 8.27333 22.9867 8.53933 23.1454 8.698C23.3041 8.84733 23.5794 8.922 23.9714 8.922H24.9094V10H23.7614C23.0521 10 22.5201 9.83667 22.1654 9.51C21.8107 9.18333 21.6334 8.64667 21.6334 7.9V3.378H20.6394V2.328H21.6334V0.395999H22.9074V2.328H24.9094V3.378H22.9074ZM33.453 5.87C33.453 6.11267 33.439 6.36933 33.411 6.64H27.279C27.3257 7.396 27.5823 7.98867 28.049 8.418C28.525 8.838 29.099 9.048 29.771 9.048C30.3217 9.048 30.779 8.922 31.143 8.67C31.5163 8.40867 31.7777 8.06333 31.927 7.634H33.299C33.0937 8.37133 32.683 8.97333 32.067 9.44C31.451 9.89733 30.6857 10.126 29.771 10.126C29.043 10.126 28.3897 9.96267 27.811 9.636C27.2417 9.30933 26.7937 8.84733 26.467 8.25C26.1403 7.64333 25.977 6.94333 25.977 6.15C25.977 5.35667 26.1357 4.66133 26.453 4.064C26.7703 3.46667 27.2137 3.00933 27.783 2.692C28.3617 2.36533 29.0243 2.202 29.771 2.202C30.499 2.202 31.143 2.36067 31.703 2.678C32.263 2.99533 32.6923 3.434 32.991 3.994C33.299 4.54467 33.453 5.17 33.453 5.87ZM32.137 5.604C32.137 5.11867 32.0297 4.70333 31.815 4.358C31.6003 4.00333 31.3063 3.73733 30.933 3.56C30.569 3.37333 30.163 3.28 29.715 3.28C29.071 3.28 28.5203 3.48533 28.063 3.896C27.615 4.30667 27.3583 4.876 27.293 5.604H32.137ZM38.2986 2.202C38.9613 2.202 39.54 2.34667 40.0346 2.636C40.5386 2.92533 40.912 3.28933 41.1546 3.728V2.328H42.4426V10.168C42.4426 10.868 42.2933 11.4887 41.9946 12.03C41.696 12.5807 41.2666 13.01 40.7066 13.318C40.156 13.626 39.512 13.78 38.7746 13.78C37.7666 13.78 36.9266 13.542 36.2546 13.066C35.5826 12.59 35.186 11.9413 35.0646 11.12H36.3246C36.4646 11.5867 36.754 11.96 37.1926 12.24C37.6313 12.5293 38.1586 12.674 38.7746 12.674C39.4746 12.674 40.044 12.4547 40.4826 12.016C40.9306 11.5773 41.1546 10.9613 41.1546 10.168V8.558C40.9026 9.006 40.5293 9.37933 40.0346 9.678C39.54 9.97667 38.9613 10.126 38.2986 10.126C37.6173 10.126 36.9966 9.958 36.4366 9.622C35.886 9.286 35.452 8.81467 35.1346 8.208C34.8173 7.60133 34.6586 6.91067 34.6586 6.136C34.6586 5.352 34.8173 4.666 35.1346 4.078C35.452 3.48067 35.886 3.01867 36.4366 2.692C36.9966 2.36533 37.6173 2.202 38.2986 2.202ZM41.1546 6.15C41.1546 5.57133 41.038 5.06733 40.8046 4.638C40.5713 4.20867 40.254 3.882 39.8526 3.658C39.4606 3.42467 39.0266 3.308 38.5506 3.308C38.0746 3.308 37.6406 3.42 37.2486 3.644C36.8566 3.868 36.544 4.19467 36.3106 4.624C36.0773 5.05333 35.9606 5.55733 35.9606 6.136C35.9606 6.724 36.0773 7.23733 36.3106 7.676C36.544 8.10533 36.8566 8.43667 37.2486 8.67C37.6406 8.894 38.0746 9.006 38.5506 9.006C39.0266 9.006 39.4606 8.894 39.8526 8.67C40.254 8.43667 40.5713 8.10533 40.8046 7.676C41.038 7.23733 41.1546 6.72867 41.1546 6.15ZM47.9416 10.126C47.2229 10.126 46.5696 9.96267 45.9816 9.636C45.4029 9.30933 44.9456 8.84733 44.6096 8.25C44.2829 7.64333 44.1196 6.94333 44.1196 6.15C44.1196 5.366 44.2876 4.67533 44.6236 4.078C44.9689 3.47133 45.4356 3.00933 46.0236 2.692C46.6116 2.36533 47.2696 2.202 47.9976 2.202C48.7256 2.202 49.3836 2.36533 49.9716 2.692C50.5596 3.00933 51.0216 3.46667 51.3576 4.064C51.7029 4.66133 51.8756 5.35667 51.8756 6.15C51.8756 6.94333 51.6982 7.64333 51.3436 8.25C50.9982 8.84733 50.5269 9.30933 49.9296 9.636C49.3322 9.96267 48.6696 10.126 47.9416 10.126ZM47.9416 9.006C48.3989 9.006 48.8282 8.89867 49.2296 8.684C49.6309 8.46933 49.9529 8.14733 50.1956 7.718C50.4476 7.28867 50.5736 6.766 50.5736 6.15C50.5736 5.534 50.4522 5.01133 50.2096 4.582C49.9669 4.15267 49.6496 3.83533 49.2576 3.63C48.8656 3.41533 48.4409 3.308 47.9836 3.308C47.5169 3.308 47.0876 3.41533 46.6956 3.63C46.3129 3.83533 46.0049 4.15267 45.7716 4.582C45.5382 5.01133 45.4216 5.534 45.4216 6.15C45.4216 6.77533 45.5336 7.30267 45.7576 7.732C45.9909 8.16133 46.2989 8.48333 46.6816 8.698C47.0642 8.90333 47.4842 9.006 47.9416 9.006ZM54.8247 3.574C55.0487 3.13533 55.366 2.79467 55.7767 2.552C56.1967 2.30933 56.7053 2.188 57.3027 2.188V3.504H56.9667C55.5387 3.504 54.8247 4.27867 54.8247 5.828V10H53.5507V2.328H54.8247V3.574ZM65.3813 2.328L60.7613 13.612H59.4453L60.9573 9.916L57.8633 2.328H59.2773L61.6853 8.544L64.0653 2.328H65.3813Z" fill="#C4C4C4"/>
</svg>
