<svg width="280" height="38" viewBox="0 0 280 38" fill="none" xmlns="http://www.w3.org/2000/svg">
<rect x="0.5" y="0.5" width="279" height="37" rx="18.5" fill="#FEFCFB" stroke="#FADCD9"/>
<circle cx="261" cy="19" r="14" fill="#FADCD9"/>
<path d="M258 13L264 19L258 25" stroke="#F79489" stroke-width="2" stroke-linecap="round" stroke-linejoin="round"/>
<path d="M11.68 16.03V23H10.77V16.03H11.68ZM15.9009 17.42C16.5676 17.42 17.1076 17.6233 17.5209 18.03C17.9343 18.43 18.1409 19.01 18.1409 19.77V23H17.2409V19.9C17.2409 19.3533 17.1043 18.9367 16.8309 18.65C16.5576 18.3567 16.1843 18.21 15.7109 18.21C15.2309 18.21 14.8476 18.36 14.5609 18.66C14.2809 18.96 14.1409 19.3967 14.1409 19.97V23H13.2309V17.52H14.1409V18.3C14.3209 18.02 14.5643 17.8033 14.8709 17.65C15.1843 17.4967 15.5276 17.42 15.9009 17.42ZM21.5674 23.09C21.1474 23.09 20.7708 23.02 20.4374 22.88C20.1041 22.7333 19.8408 22.5333 19.6474 22.28C19.4541 22.02 19.3474 21.7233 19.3274 21.39H20.2674C20.2941 21.6633 20.4208 21.8867 20.6474 22.06C20.8808 22.2333 21.1841 22.32 21.5574 22.32C21.9041 22.32 22.1774 22.2433 22.3774 22.09C22.5774 21.9367 22.6774 21.7433 22.6774 21.51C22.6774 21.27 22.5708 21.0933 22.3574 20.98C22.1441 20.86 21.8141 20.7433 21.3674 20.63C20.9608 20.5233 20.6274 20.4167 20.3674 20.31C20.1141 20.1967 19.8941 20.0333 19.7074 19.82C19.5274 19.6 19.4374 19.3133 19.4374 18.96C19.4374 18.68 19.5208 18.4233 19.6874 18.19C19.8541 17.9567 20.0908 17.7733 20.3974 17.64C20.7041 17.5 21.0541 17.43 21.4474 17.43C22.0541 17.43 22.5441 17.5833 22.9174 17.89C23.2908 18.1967 23.4908 18.6167 23.5174 19.15H22.6074C22.5874 18.8633 22.4708 18.6333 22.2574 18.46C22.0508 18.2867 21.7708 18.2 21.4174 18.2C21.0908 18.2 20.8308 18.27 20.6374 18.41C20.4441 18.55 20.3474 18.7333 20.3474 18.96C20.3474 19.14 20.4041 19.29 20.5174 19.41C20.6374 19.5233 20.7841 19.6167 20.9574 19.69C21.1374 19.7567 21.3841 19.8333 21.6974 19.92C22.0908 20.0267 22.4108 20.1333 22.6574 20.24C22.9041 20.34 23.1141 20.4933 23.2874 20.7C23.4674 20.9067 23.5608 21.1767 23.5674 21.51C23.5674 21.81 23.4841 22.08 23.3174 22.32C23.1508 22.56 22.9141 22.75 22.6074 22.89C22.3074 23.0233 21.9608 23.09 21.5674 23.09ZM29.852 20.05C29.852 20.2233 29.842 20.4067 29.822 20.6H25.442C25.4754 21.14 25.6587 21.5633 25.992 21.87C26.332 22.17 26.742 22.32 27.222 22.32C27.6154 22.32 27.942 22.23 28.202 22.05C28.4687 21.8633 28.6554 21.6167 28.762 21.31H29.742C29.5954 21.8367 29.302 22.2667 28.862 22.6C28.422 22.9267 27.8754 23.09 27.222 23.09C26.702 23.09 26.2354 22.9733 25.822 22.74C25.4154 22.5067 25.0954 22.1767 24.862 21.75C24.6287 21.3167 24.512 20.8167 24.512 20.25C24.512 19.6833 24.6254 19.1867 24.852 18.76C25.0787 18.3333 25.3954 18.0067 25.802 17.78C26.2154 17.5467 26.6887 17.43 27.222 17.43C27.742 17.43 28.202 17.5433 28.602 17.77C29.002 17.9967 29.3087 18.31 29.522 18.71C29.742 19.1033 29.852 19.55 29.852 20.05ZM28.912 19.86C28.912 19.5133 28.8354 19.2167 28.682 18.97C28.5287 18.7167 28.3187 18.5267 28.052 18.4C27.792 18.2667 27.502 18.2 27.182 18.2C26.722 18.2 26.3287 18.3467 26.002 18.64C25.682 18.9333 25.4987 19.34 25.452 19.86H28.912ZM31.9632 18.41C32.1232 18.0967 32.3499 17.8533 32.6432 17.68C32.9432 17.5067 33.3065 17.42 33.7332 17.42V18.36H33.4932C32.4732 18.36 31.9632 18.9133 31.9632 20.02V23H31.0532V17.52H31.9632V18.41ZM35.8937 18.27V21.5C35.8937 21.7667 35.9503 21.9567 36.0637 22.07C36.177 22.1767 36.3737 22.23 36.6537 22.23H37.3237V23H36.5037C35.997 23 35.617 22.8833 35.3637 22.65C35.1103 22.4167 34.9837 22.0333 34.9837 21.5V18.27H34.2737V17.52H34.9837V16.14H35.8937V17.52H37.3237V18.27H35.8937ZM45.8123 17.52L42.5123 25.58H41.5723L42.6523 22.94L40.4423 17.52H41.4523L43.1723 21.96L44.8723 17.52H45.8123ZM49.117 23.09C48.6037 23.09 48.137 22.9733 47.717 22.74C47.3037 22.5067 46.977 22.1767 46.737 21.75C46.5037 21.3167 46.387 20.8167 46.387 20.25C46.387 19.69 46.507 19.1967 46.747 18.77C46.9937 18.3367 47.327 18.0067 47.747 17.78C48.167 17.5467 48.637 17.43 49.157 17.43C49.677 17.43 50.147 17.5467 50.567 17.78C50.987 18.0067 51.317 18.3333 51.557 18.76C51.8037 19.1867 51.927 19.6833 51.927 20.25C51.927 20.8167 51.8004 21.3167 51.547 21.75C51.3004 22.1767 50.9637 22.5067 50.537 22.74C50.1104 22.9733 49.637 23.09 49.117 23.09ZM49.117 22.29C49.4437 22.29 49.7504 22.2133 50.037 22.06C50.3237 21.9067 50.5537 21.6767 50.727 21.37C50.907 21.0633 50.997 20.69 50.997 20.25C50.997 19.81 50.9104 19.4367 50.737 19.13C50.5637 18.8233 50.337 18.5967 50.057 18.45C49.777 18.2967 49.4737 18.22 49.147 18.22C48.8137 18.22 48.507 18.2967 48.227 18.45C47.9537 18.5967 47.7337 18.8233 47.567 19.13C47.4004 19.4367 47.317 19.81 47.317 20.25C47.317 20.6967 47.397 21.0733 47.557 21.38C47.7237 21.6867 47.9437 21.9167 48.217 22.07C48.4904 22.2167 48.7904 22.29 49.117 22.29ZM57.9835 17.52V23H57.0735V22.19C56.9002 22.47 56.6568 22.69 56.3435 22.85C56.0368 23.0033 55.6968 23.08 55.3235 23.08C54.8968 23.08 54.5135 22.9933 54.1735 22.82C53.8335 22.64 53.5635 22.3733 53.3635 22.02C53.1702 21.6667 53.0735 21.2367 53.0735 20.73V17.52H53.9735V20.61C53.9735 21.15 54.1102 21.5667 54.3835 21.86C54.6568 22.1467 55.0302 22.29 55.5035 22.29C55.9902 22.29 56.3735 22.14 56.6535 21.84C56.9335 21.54 57.0735 21.1033 57.0735 20.53V17.52H57.9835ZM60.43 18.41C60.59 18.0967 60.8167 17.8533 61.11 17.68C61.41 17.5067 61.7733 17.42 62.2 17.42V18.36H61.96C60.94 18.36 60.43 18.9133 60.43 20.02V23H59.52V17.52H60.43V18.41ZM70.9165 20.05C70.9165 20.2233 70.9065 20.4067 70.8865 20.6H66.5065C66.5398 21.14 66.7232 21.5633 67.0565 21.87C67.3965 22.17 67.8065 22.32 68.2865 22.32C68.6798 22.32 69.0065 22.23 69.2665 22.05C69.5332 21.8633 69.7198 21.6167 69.8265 21.31H70.8065C70.6598 21.8367 70.3665 22.2667 69.9265 22.6C69.4865 22.9267 68.9398 23.09 68.2865 23.09C67.7665 23.09 67.2998 22.9733 66.8865 22.74C66.4798 22.5067 66.1598 22.1767 65.9265 21.75C65.6932 21.3167 65.5765 20.8167 65.5765 20.25C65.5765 19.6833 65.6898 19.1867 65.9165 18.76C66.1432 18.3333 66.4598 18.0067 66.8665 17.78C67.2798 17.5467 67.7532 17.43 68.2865 17.43C68.8065 17.43 69.2665 17.5433 69.6665 17.77C70.0665 17.9967 70.3732 18.31 70.5865 18.71C70.8065 19.1033 70.9165 19.55 70.9165 20.05ZM69.9765 19.86C69.9765 19.5133 69.8998 19.2167 69.7465 18.97C69.5932 18.7167 69.3832 18.5267 69.1165 18.4C68.8565 18.2667 68.5665 18.2 68.2465 18.2C67.7865 18.2 67.3932 18.3467 67.0665 18.64C66.7465 18.9333 66.5632 19.34 66.5165 19.86H69.9765ZM78.7077 17.42C79.1343 17.42 79.5143 17.51 79.8477 17.69C80.181 17.8633 80.4443 18.1267 80.6377 18.48C80.831 18.8333 80.9277 19.2633 80.9277 19.77V23H80.0277V19.9C80.0277 19.3533 79.891 18.9367 79.6177 18.65C79.351 18.3567 78.9877 18.21 78.5277 18.21C78.0543 18.21 77.6777 18.3633 77.3977 18.67C77.1177 18.97 76.9777 19.4067 76.9777 19.98V23H76.0777V19.9C76.0777 19.3533 75.941 18.9367 75.6677 18.65C75.401 18.3567 75.0377 18.21 74.5777 18.21C74.1043 18.21 73.7277 18.3633 73.4477 18.67C73.1677 18.97 73.0277 19.4067 73.0277 19.98V23H72.1177V17.52H73.0277V18.31C73.2077 18.0233 73.4477 17.8033 73.7477 17.65C74.0543 17.4967 74.391 17.42 74.7577 17.42C75.2177 17.42 75.6243 17.5233 75.9777 17.73C76.331 17.9367 76.5943 18.24 76.7677 18.64C76.921 18.2533 77.1743 17.9533 77.5277 17.74C77.881 17.5267 78.2743 17.42 78.7077 17.42ZM82.0804 20.24C82.0804 19.68 82.1937 19.19 82.4204 18.77C82.6471 18.3433 82.9571 18.0133 83.3504 17.78C83.7504 17.5467 84.1937 17.43 84.6804 17.43C85.1604 17.43 85.5771 17.5333 85.9304 17.74C86.2837 17.9467 86.5471 18.2067 86.7204 18.52V17.52H87.6404V23H86.7204V21.98C86.5404 22.3 86.2704 22.5667 85.9104 22.78C85.5571 22.9867 85.1437 23.09 84.6704 23.09C84.1837 23.09 83.7437 22.97 83.3504 22.73C82.9571 22.49 82.6471 22.1533 82.4204 21.72C82.1937 21.2867 82.0804 20.7933 82.0804 20.24ZM86.7204 20.25C86.7204 19.8367 86.6371 19.4767 86.4704 19.17C86.3037 18.8633 86.0771 18.63 85.7904 18.47C85.5104 18.3033 85.2004 18.22 84.8604 18.22C84.5204 18.22 84.2104 18.3 83.9304 18.46C83.6504 18.62 83.4271 18.8533 83.2604 19.16C83.0937 19.4667 83.0104 19.8267 83.0104 20.24C83.0104 20.66 83.0937 21.0267 83.2604 21.34C83.4271 21.6467 83.6504 21.8833 83.9304 22.05C84.2104 22.21 84.5204 22.29 84.8604 22.29C85.2004 22.29 85.5104 22.21 85.7904 22.05C86.0771 21.8833 86.3037 21.6467 86.4704 21.34C86.6371 21.0267 86.7204 20.6633 86.7204 20.25ZM89.6482 16.63C89.4749 16.63 89.3282 16.57 89.2082 16.45C89.0882 16.33 89.0282 16.1833 89.0282 16.01C89.0282 15.8367 89.0882 15.69 89.2082 15.57C89.3282 15.45 89.4749 15.39 89.6482 15.39C89.8149 15.39 89.9549 15.45 90.0682 15.57C90.1882 15.69 90.2482 15.8367 90.2482 16.01C90.2482 16.1833 90.1882 16.33 90.0682 16.45C89.9549 16.57 89.8149 16.63 89.6482 16.63ZM90.0882 17.52V23H89.1782V17.52H90.0882ZM92.5491 15.6V23H91.6391V15.6H92.5491ZM100.886 21.45H97.8461L97.2861 23H96.3261L98.8461 16.07H99.8961L102.406 23H101.446L100.886 21.45ZM100.626 20.71L99.3661 17.19L98.1061 20.71H100.626ZM103.164 20.24C103.164 19.68 103.278 19.19 103.504 18.77C103.731 18.3433 104.041 18.0133 104.434 17.78C104.834 17.5467 105.281 17.43 105.774 17.43C106.201 17.43 106.598 17.53 106.964 17.73C107.331 17.9233 107.611 18.18 107.804 18.5V15.6H108.724V23H107.804V21.97C107.624 22.2967 107.358 22.5667 107.004 22.78C106.651 22.9867 106.238 23.09 105.764 23.09C105.278 23.09 104.834 22.97 104.434 22.73C104.041 22.49 103.731 22.1533 103.504 21.72C103.278 21.2867 103.164 20.7933 103.164 20.24ZM107.804 20.25C107.804 19.8367 107.721 19.4767 107.554 19.17C107.388 18.8633 107.161 18.63 106.874 18.47C106.594 18.3033 106.284 18.22 105.944 18.22C105.604 18.22 105.294 18.3 105.014 18.46C104.734 18.62 104.511 18.8533 104.344 19.16C104.178 19.4667 104.094 19.8267 104.094 20.24C104.094 20.66 104.178 21.0267 104.344 21.34C104.511 21.6467 104.734 21.8833 105.014 22.05C105.294 22.21 105.604 22.29 105.944 22.29C106.284 22.29 106.594 22.21 106.874 22.05C107.161 21.8833 107.388 21.6467 107.554 21.34C107.721 21.0267 107.804 20.6633 107.804 20.25ZM109.922 20.24C109.922 19.68 110.036 19.19 110.262 18.77C110.489 18.3433 110.799 18.0133 111.192 17.78C111.592 17.5467 112.039 17.43 112.532 17.43C112.959 17.43 113.356 17.53 113.722 17.73C114.089 17.9233 114.369 18.18 114.562 18.5V15.6H115.482V23H114.562V21.97C114.382 22.2967 114.116 22.5667 113.762 22.78C113.409 22.9867 112.996 23.09 112.522 23.09C112.036 23.09 111.592 22.97 111.192 22.73C110.799 22.49 110.489 22.1533 110.262 21.72C110.036 21.2867 109.922 20.7933 109.922 20.24ZM114.562 20.25C114.562 19.8367 114.479 19.4767 114.312 19.17C114.146 18.8633 113.919 18.63 113.632 18.47C113.352 18.3033 113.042 18.22 112.702 18.22C112.362 18.22 112.052 18.3 111.772 18.46C111.492 18.62 111.269 18.8533 111.102 19.16C110.936 19.4667 110.852 19.8267 110.852 20.24C110.852 20.66 110.936 21.0267 111.102 21.34C111.269 21.6467 111.492 21.8833 111.772 22.05C112.052 22.21 112.362 22.29 112.702 22.29C113.042 22.29 113.352 22.21 113.632 22.05C113.919 21.8833 114.146 21.6467 114.312 21.34C114.479 21.0267 114.562 20.6633 114.562 20.25ZM122.02 20.05C122.02 20.2233 122.01 20.4067 121.99 20.6H117.61C117.643 21.14 117.827 21.5633 118.16 21.87C118.5 22.17 118.91 22.32 119.39 22.32C119.783 22.32 120.11 22.23 120.37 22.05C120.637 21.8633 120.823 21.6167 120.93 21.31H121.91C121.763 21.8367 121.47 22.2667 121.03 22.6C120.59 22.9267 120.043 23.09 119.39 23.09C118.87 23.09 118.403 22.9733 117.99 22.74C117.583 22.5067 117.263 22.1767 117.03 21.75C116.797 21.3167 116.68 20.8167 116.68 20.25C116.68 19.6833 116.793 19.1867 117.02 18.76C117.247 18.3333 117.563 18.0067 117.97 17.78C118.383 17.5467 118.857 17.43 119.39 17.43C119.91 17.43 120.37 17.5433 120.77 17.77C121.17 17.9967 121.477 18.31 121.69 18.71C121.91 19.1033 122.02 19.55 122.02 20.05ZM121.08 19.86C121.08 19.5133 121.003 19.2167 120.85 18.97C120.697 18.7167 120.487 18.5267 120.22 18.4C119.96 18.2667 119.67 18.2 119.35 18.2C118.89 18.2 118.497 18.3467 118.17 18.64C117.85 18.9333 117.667 19.34 117.62 19.86H121.08ZM124.131 18.41C124.291 18.0967 124.518 17.8533 124.811 17.68C125.111 17.5067 125.475 17.42 125.901 17.42V18.36H125.661C124.641 18.36 124.131 18.9133 124.131 20.02V23H123.221V17.52H124.131V18.41ZM128.892 23.09C128.472 23.09 128.095 23.02 127.762 22.88C127.428 22.7333 127.165 22.5333 126.972 22.28C126.778 22.02 126.672 21.7233 126.652 21.39H127.592C127.618 21.6633 127.745 21.8867 127.972 22.06C128.205 22.2333 128.508 22.32 128.882 22.32C129.228 22.32 129.502 22.2433 129.702 22.09C129.902 21.9367 130.002 21.7433 130.002 21.51C130.002 21.27 129.895 21.0933 129.682 20.98C129.468 20.86 129.138 20.7433 128.692 20.63C128.285 20.5233 127.952 20.4167 127.692 20.31C127.438 20.1967 127.218 20.0333 127.032 19.82C126.852 19.6 126.762 19.3133 126.762 18.96C126.762 18.68 126.845 18.4233 127.012 18.19C127.178 17.9567 127.415 17.7733 127.722 17.64C128.028 17.5 128.378 17.43 128.772 17.43C129.378 17.43 129.868 17.5833 130.242 17.89C130.615 18.1967 130.815 18.6167 130.842 19.15H129.932C129.912 18.8633 129.795 18.6333 129.582 18.46C129.375 18.2867 129.095 18.2 128.742 18.2C128.415 18.2 128.155 18.27 127.962 18.41C127.768 18.55 127.672 18.7333 127.672 18.96C127.672 19.14 127.728 19.29 127.842 19.41C127.962 19.5233 128.108 19.6167 128.282 19.69C128.462 19.7567 128.708 19.8333 129.022 19.92C129.415 20.0267 129.735 20.1333 129.982 20.24C130.228 20.34 130.438 20.4933 130.612 20.7C130.792 20.9067 130.885 21.1767 130.892 21.51C130.892 21.81 130.808 22.08 130.642 22.32C130.475 22.56 130.238 22.75 129.932 22.89C129.632 23.0233 129.285 23.09 128.892 23.09ZM134.116 23.09C133.696 23.09 133.32 23.02 132.986 22.88C132.653 22.7333 132.39 22.5333 132.196 22.28C132.003 22.02 131.896 21.7233 131.876 21.39H132.816C132.843 21.6633 132.97 21.8867 133.196 22.06C133.43 22.2333 133.733 22.32 134.106 22.32C134.453 22.32 134.726 22.2433 134.926 22.09C135.126 21.9367 135.226 21.7433 135.226 21.51C135.226 21.27 135.12 21.0933 134.906 20.98C134.693 20.86 134.363 20.7433 133.916 20.63C133.51 20.5233 133.176 20.4167 132.916 20.31C132.663 20.1967 132.443 20.0333 132.256 19.82C132.076 19.6 131.986 19.3133 131.986 18.96C131.986 18.68 132.07 18.4233 132.236 18.19C132.403 17.9567 132.64 17.7733 132.946 17.64C133.253 17.5 133.603 17.43 133.996 17.43C134.603 17.43 135.093 17.5833 135.466 17.89C135.84 18.1967 136.04 18.6167 136.066 19.15H135.156C135.136 18.8633 135.02 18.6333 134.806 18.46C134.6 18.2867 134.32 18.2 133.966 18.2C133.64 18.2 133.38 18.27 133.186 18.41C132.993 18.55 132.896 18.7333 132.896 18.96C132.896 19.14 132.953 19.29 133.066 19.41C133.186 19.5233 133.333 19.6167 133.506 19.69C133.686 19.7567 133.933 19.8333 134.246 19.92C134.64 20.0267 134.96 20.1333 135.206 20.24C135.453 20.34 135.663 20.4933 135.836 20.7C136.016 20.9067 136.11 21.1767 136.116 21.51C136.116 21.81 136.033 22.08 135.866 22.32C135.7 22.56 135.463 22.75 135.156 22.89C134.856 23.0233 134.51 23.09 134.116 23.09Z" fill="#F79489"/>
</svg>
